<svg xmlns="http://www.w3.org/2000/svg" xmlns:xlink="http://www.w3.org/1999/xlink" width="619" height="619" viewBox="0 0 619 619">
  <defs>
    <filter id="Rectangle_3" x="0" y="0" width="619" height="619" filterUnits="userSpaceOnUse">
      <feOffset dx="10" dy="10" input="SourceAlpha"/>
      <feGaussianBlur stdDeviation="3" result="blur"/>
      <feFlood flood-opacity="0.161"/>
      <feComposite operator="in" in2="blur"/>
      <feComposite in="SourceGraphic"/>
    </filter>
    <linearGradient id="linear-gradient" x1="0.5" y1="-0.152" x2="0.444" y2="0.945" gradientUnits="objectBoundingBox">
      <stop offset="0" stop-color="#2b09e8"/>
      <stop offset="1" stop-color="#e604e6"/>
    </linearGradient>
  </defs>
  <g id="logo-gradient" transform="translate(680 177)">
    <g transform="matrix(1, 0, 0, 1, -680, -177)" filter="url(#Rectangle_3)">
      <g id="Rectangle_3-2" data-name="Rectangle 3" fill="#fff" stroke="#707070" stroke-width="1">
        <rect width="600" height="600" stroke="none"/>
        <rect x="0.5" y="0.5" width="599" height="599" fill="none"/>
      </g>
    </g>
    <path id="Intersection_1" data-name="Intersection 1" d="M124.981,544.279c-2.534,0-2.705-2.226,4.324-9.953,16.591-18.24,72.606-41.783,123.619-101.219,45.553-50.517,68.293-114.615,69.9-157.969,3.985-107.313-59.212-134.223-59.212-134.223s-44.126-32.014-86.188,0,33.707,44.177,47.256,58.833c0,0,16.575,8.871,19.469,35.329s-13.206,55.89-37.347,63.619-55.718,12.367-77.5-23.557-37.78-103.2,17.509-150.714c18.671-19.6,41.351-32.286,90.475-34.323,62.56-7.92,137.2,28.348,154.661,101.618,6.409,44.8,2.836,108.689-39.03,170.8-64.211,115.8-216.673,177.638-216.673,177.638S128.428,544.279,124.981,544.279ZM458.5,288A27.5,27.5,0,1,1,486,315.5,27.5,27.5,0,0,1,458.5,288Zm0-118A27.5,27.5,0,1,1,486,197.5,27.5,27.5,0,0,1,458.5,170Z" transform="translate(-691 -194)" stroke="#707070" stroke-width="1" fill="url(#linear-gradient)"/>
  </g>
</svg>
